<svg role="img" viewBox="0 0 64 64" xmlns="http://www.w3.org/2000/svg" id="Owasp--Streamline-Simple-Icons" height="64" width="64">
  <desc>
    Owasp Streamline Icon: https://streamlinehq.com
  </desc>
  <title>OWASP</title>
  <path d="M42.391999999999996 54.67466666666667c-1.024 0 -4.752 -6.637333333333332 -5.253333333333333 -8.527999999999999 -1.048 -3.9626666666666663 -0.8213333333333332 -5.637333333333332 -0.7599999999999999 -6.1706666666666665 0.19199999999999998 -1.6346666666666665 1.7786666666666666 -2.453333333333333 1.8746666666666665 -4.661333333333333 0.026666666666666665 -0.6826666666666666 0.37333333333333335 -4.093333333333333 0.6479999999999999 -6.7573333333333325a4.594666666666667 4.594666666666667 0 0 1 -1.9546666666666666 -0.9146666666666667c1.8026666666666666 2.421333333333333 -0.8533333333333333 5.32 -4.712 9.181333333333333 -4.096 4.096 -13.186666666666667 7.895999999999999 -13.186666666666667 7.895999999999999s3.8 -9.093333333333334 7.895999999999999 -13.186666666666667c3.0133333333333328 -3.0106666666666664 5.4399999999999995 -5.288 7.509333333333332 -5.288 0.5866666666666667 0 1.1386666666666665 0.17866666666666667 1.672 0.576a4.592 4.592 0 0 1 -0.9146666666666667 -1.9546666666666666c-2.6639999999999997 0.2746666666666666 -6.074666666666666 0.6186666666666667 -6.7573333333333325 0.6506666666666666 -2.2106666666666666 0.09599999999999999 -3.0266666666666664 1.68 -4.658666666666667 1.8719999999999999 -0.18666666666666668 0.021333333333333333 -0.5173333333333333 0.064 -1.0346666666666666 0.064 -0.96 0 -2.5679999999999996 -0.144 -5.135999999999999 -0.8266666666666667 -2.0586666666666664 -0.5413333333333333 -9.728 -4.906666666666666 -8.373333333333333 -5.453333333333333 0.6933333333333334 -0.27999999999999997 2.8986666666666663 -0.46933333333333327 5.799999999999999 -0.46933333333333327 2.792 0 6.232 0.176 9.589333333333332 0.6133333333333333 4.1866666666666665 0.5466666666666666 8.026666666666666 1.2346666666666666 10.645333333333333 1.7493333333333334 0.042666666666666665 -0.1413333333333333 0.09333333333333334 -0.2773333333333333 0.15466666666666667 -0.4106666666666666l-2.6773333333333333 -1.2799999999999998s-2.1333333333333333 -2.453333333333333 -1.9066666666666665 -2.6239999999999997a0.05333333333333333 0.05333333333333333 0 0 1 0.032 -0.008c0.33599999999999997 0 2.0453333333333332 1.9546666666666666 2.2106666666666666 2.1759999999999997l1.6133333333333333 0.5386666666666666 -0.7573333333333332 -0.6639999999999999s-1.0346666666666666 -3.8346666666666662 -0.7653333333333332 -3.925333333333333h0.010666666666666666c0.2826666666666666 0 1.224 3.333333333333333 1.3039999999999998 3.5733333333333333 0.18666666666666668 0.15999999999999998 0.8079999999999999 0.4053333333333333 1.5893333333333333 0.8533333333333333l-0.8213333333333332 -2.1066666666666665s0.37333333333333335 -3.4799999999999995 0.6479999999999999 -3.4799999999999995h0.008c0.27999999999999997 0.056 -0.05333333333333333 2.904 -0.12533333333333332 3.2560000000000002l1.3599999999999999 2.088a3.493333333333333 3.493333333333333 0 0 1 1.2346666666666666 -0.21866666666666668c0.49066666666666664 0 0.9973333333333333 0.09599999999999999 1.488 0.2853333333333333 -0.6293333333333333 -1.3386666666666667 -0.5813333333333333 -2.733333333333333 0.2533333333333333 -3.568a2.2399999999999998 2.2399999999999998 0 0 1 0.9413333333333332 -0.5573333333333332 1.232 1.232 0 0 1 1.2186666666666666 -1.0213333333333332c0.33866666666666667 0 0.6773333333333333 0.13333333333333333 0.9386666666666665 0.3946666666666666a1.3253333333333333 1.3253333333333333 0 0 1 0.39199999999999996 0.8933333333333333c0.4026666666666666 -0.8293333333333333 0.8773333333333333 -1.9466666666666665 0.8453333333333333 -2.312 -0.07999999999999999 -0.8186666666666667 -1.0293333333333332 -2.272 -1.04 -2.285333333333333a0.20266666666666666 0.20266666666666666 0 0 1 0.17066666666666666 -0.3173333333333333c0.06666666666666667 0 0.13333333333333333 0.032 0.17066666666666666 0.09333333333333334 0.042666666666666665 0.06133333333333333 1.016 1.5519999999999998 1.1039999999999999 2.472 0.047999999999999994 0.528 -0.5599999999999999 1.8559999999999999 -0.888 2.533333333333333a5.938666666666666 5.938666666666666 0 0 1 2.328 2.3306666666666667c0.6533333333333333 -0.31999999999999995 1.9066666666666665 -0.8906666666666667 2.472 -0.8906666666666667l0.064 0.0026666666666666666c0.9199999999999999 0.088 2.4106666666666667 1.064 2.472 1.1039999999999999a0.20266666666666666 0.20266666666666666 0 0 1 -0.224 0.3413333333333333c-0.013333333333333332 -0.010666666666666666 -1.4666666666666668 -0.96 -2.285333333333333 -1.04h-0.039999999999999994c-0.39999999999999997 0 -1.472 0.456 -2.272 0.8453333333333333 0.31999999999999995 0.010666666666666666 0.6453333333333333 0.1413333333333333 0.8933333333333333 0.39199999999999996a1.2853333333333332 1.2853333333333332 0 0 1 0.032 1.816 1.224 1.224 0 0 1 -0.6586666666666666 0.3413333333333333 2.253333333333333 2.253333333333333 0 0 1 -0.5599999999999999 0.944 2.464 2.464 0 0 1 -1.7866666666666666 0.6799999999999999c-0.5653333333333332 0 -1.176 -0.14666666666666667 -1.7786666666666666 -0.42666666666666664 0.352 0.9146666666666667 0.3786666666666666 1.888 0.06666666666666667 2.7199999999999998l2.088 1.3599999999999999c0.2533333333333333 -0.050666666666666665 1.776 -0.23466666666666663 2.6479999999999997 -0.23466666666666663 0.3466666666666667 0 0.592 0.02933333333333333 0.608 0.10666666666666666 0.05333333333333333 0.2826666666666666 -3.4799999999999995 0.6586666666666666 -3.4799999999999995 0.6586666666666666l-2.1066666666666665 -0.8213333333333332c0.448 0.7813333333333332 0.6933333333333334 1.4053333333333333 0.8533333333333333 1.5893333333333333 0.24266666666666664 0.07999999999999999 3.664 1.0453333333333332 3.5733333333333333 1.3146666666666667 -0.010666666666666666 0.032 -0.06933333333333333 0.04533333333333334 -0.16799999999999998 0.04533333333333334 -0.7546666666666666 0 -3.76 -0.8106666666666666 -3.76 -0.8106666666666666l-0.6613333333333333 -0.7573333333333332 0.5386666666666666 1.6133333333333333c0.23199999999999998 0.17333333333333334 2.336 2.013333333333333 2.1679999999999997 2.2426666666666666 -0.010666666666666666 0.013333333333333332 -0.023999999999999997 0.018666666666666665 -0.042666666666666665 0.018666666666666665 -0.3706666666666667 0 -2.5786666666666664 -1.9253333333333331 -2.5786666666666664 -1.9253333333333331l-1.2826666666666666 -2.6773333333333333a3.1466666666666665 3.1466666666666665 0 0 1 -0.4106666666666666 0.15466666666666667c0.5146666666666666 2.6186666666666665 1.2026666666666666 6.458666666666667 1.7493333333333334 10.645333333333333 0.8933333333333333 6.850666666666666 0.6933333333333334 14.029333333333334 0.144 15.386666666666665 -0.042666666666666665 0.10933333333333334 -0.112 0.15999999999999998 -0.20266666666666666 0.15999999999999998M32 64C14.328 64 0 49.672 0 32S14.328 0 32 0s32 14.328 32 32 -14.328 32 -32 32m0 -59.07466666666666C17.048 4.925333333333333 4.925333333333333 17.048 4.925333333333333 32S17.048 59.07466666666666 32 59.07466666666666 59.07466666666666 46.952 59.07466666666666 32 46.952 4.925333333333333 32 4.925333333333333Z" fill="#000000" stroke-width="2.6667"></path>
</svg>